BBC Proms 2012 - 7. Handel - Water Music and Music for the Royal Fireworks

Herve Niquet and Le Concert Spirituel make their Proms debut in this free Late Night Prom, giving Handel's three Water Music suites and Fireworks Music the big-band, period-instrument treatment. Niquet directs an expanded group of up to 80 musicians to evoke resplendent royal occasions on the River Thames and in Green Park, offering a new slant on London's favourite part pieces.

Handel - Water Music Suite No. 1 in F major (26 mins)
Handel - Water Music Suite No. 2 in D Major (10 mins)
Handel - Water Music Suite No. 3 in G major (10 mins)
Handel - Music for the Royal Fireworks (17 mins)

Video
ID                                       : 1
Format                                   : AVC
Format/Info                              : Advanced Video Codec
Format profile                           : High@L4.1
Format settings, CABAC                   : Yes
Format settings, ReFrames                : 6 frames
Codec ID                                 : avc1
Codec ID/Info                            : Advanced Video Coding
Duration                                 : 1h 11mn
Bit rate mode                            : Variable
Bit rate                                 : 2 693 Kbps
Maximum bit rate                         : 3 500 Kbps
Width                                    : 1 280 pixels
Height                                   : 720 pixels
Display aspect ratio                     : 16:9
Frame rate mode                          : Constant
Frame rate                               : 25.000 fps
Standard                                 : PAL
Color space                              : YUV
Chroma subsampling                       : 4:2:0
Bit depth                                : 8 bits
Scan type                                : Progressive
Bits/(Pixel*Frame)                       : 0.117
Stream size                              : 1.34 GiB (96%)

Audio
ID                                       : 2
Format                                   : AAC
Format/Info                              : Advanced Audio Codec
Format profile                           : HE-AAC / LC
Codec ID                                 : 40
Duration                                 : 1h 11mn
Bit rate mode                            : Constant
Bit rate                                 : 96.0 Kbps
Channel(s)                               : 2 channels
Channel positions                        : Front: L R
Sampling rate                            : 48.0 KHz / 24.0 KHz
Compression mode                         : Lossy
Stream size                              : 48.3 MiB (3%)
